<svg width="16" height="16" viewBox="0 0 16 16" fill="none" xmlns="http://www.w3.org/2000/svg">
<path fill-rule="evenodd" clip-rule="evenodd" d="M11 0.5C13.4853 0.5 15.5 2.51472 15.5 5V11C15.5 13.4853 13.4853 15.5 11 15.5H5C2.51472 15.5 0.5 13.4853 0.5 11V5C0.5 2.51472 2.51472 0.5 5 0.5L11 0.5ZM10.25 2.75H5.75C4.14335 2.75 2.83169 4.01298 2.75367 5.60027L2.75 5.75V10.25C2.75 11.8566 4.01298 13.1683 5.60027 13.2463L5.75 13.25H10.25C11.8566 13.25 13.1683 11.987 13.2463 10.3997L13.25 10.25V5.75C13.25 4.14335 11.987 2.83169 10.3997 2.75367L10.25 2.75Z" fill="white"/>
</svg>
