<svg width="128" height="34" viewBox="0 0 128 34" fill="none" xmlns="http://www.w3.org/2000/svg">
<path fill-rule="evenodd" clip-rule="evenodd" d="M125.112 0.68335H97.6909C96.3806 0.68335 95.3159 1.72194 95.3159 3.00185V30.5385C95.3159 31.8197 96.3806 32.8597 97.6909 32.8597H125.112C126.424 32.8597 127.493 31.8197 127.493 30.5385V3.00185C127.493 1.72194 126.424 0.68335 125.112 0.68335ZM102.474 5.11326C104 5.11326 105.24 6.35317 105.24 7.87955C105.24 9.40726 104 10.6472 102.474 10.6472C100.944 10.6472 99.7063 9.40726 99.7063 7.87955C99.7063 6.35317 100.944 5.11326 102.474 5.11326ZM104.859 28.1018H100.087V12.7463H104.859V28.1018ZM107.853 12.7463H112.43V14.8445H112.494C113.131 13.6372 114.688 12.3646 117.01 12.3646C121.843 12.3646 122.735 15.5452 122.735 19.6792V28.1019H117.966V20.6344C117.966 18.8538 117.933 16.5632 115.486 16.5632C113.002 16.5632 112.621 18.503 112.621 20.5057V28.1019H107.853V12.7463ZM19.2413 5.10637C20.7691 5.10637 22.009 6.34629 22.009 7.87266C22.009 9.40172 20.7691 10.6381 19.2413 10.6381C17.7154 10.6381 16.4755 9.40172 16.4755 7.87266C16.4755 6.34629 17.7154 5.10637 19.2413 5.10637ZM21.6269 28.095V12.7394H16.8558V28.095H21.6269ZM0.509766 5.44215V28.1011H14.6634V23.5211H5.47367V5.44215H0.509766ZM46.3386 5.44056H41.5696V28.1011H46.3386V20.5104H46.4008L51.4625 28.1011H57.4577L51.3314 19.8423L57.5884 12.7326H51.7414L46.3386 18.9831V5.44056ZM24.2654 12.7416H28.845V14.8407H28.9089C29.5444 13.632 31.1032 12.3604 33.4246 12.3604C38.2596 12.3604 39.1498 15.5405 39.1498 19.6741V28.0949H34.3789V20.6289C34.3789 18.8473 34.3461 16.5583 31.8969 16.5583C29.4168 16.5583 29.0363 18.4987 29.0363 20.5015V28.0949H24.2654V12.7416ZM65.1482 28.4912C67.6305 28.4912 70.1416 27.3771 71.6684 25.4367L68.3295 22.9877C67.534 24.069 66.4853 24.8644 64.9263 24.8644C63.0813 24.8644 61.7116 23.6878 61.3328 21.8747H72.4005V20.3798C72.4005 15.451 69.6044 12.2709 65.1482 12.2709C60.3787 12.2709 56.562 15.451 56.562 20.3798C56.562 25.3093 60.3787 28.4912 65.1482 28.4912ZM64.7022 15.7057C66.4214 15.7057 67.6616 17.0417 67.6305 18.632H61.3328C61.4586 17.1369 62.6045 15.7057 64.7022 15.7057ZM90.545 28.0927H86.1552V26.0565H86.093C85.3592 27.1692 83.5162 28.4742 81.3528 28.4742C76.7717 28.4742 73.7509 25.1678 73.7509 20.4919C73.7509 16.1979 76.4222 12.2543 80.8109 12.2543C82.7847 12.2543 84.6288 12.7946 85.7103 14.2894H85.7724V5.44045H90.545V28.0927ZM82.3364 16.4527C79.9529 16.4527 78.5219 18.0441 78.5219 20.3639C78.5219 22.6875 79.9529 24.2756 82.3364 24.2756C84.7233 24.2756 86.1551 22.6875 86.1551 20.3639C86.1551 18.0441 84.7233 16.4527 82.3364 16.4527Z" fill="#969696"/>
</svg>
