<svg width="508" height="278" viewBox="0 0 508 278" fill="none" xmlns="http://www.w3.org/2000/svg">
<rect width="508" height="278" rx="8" fill="#DBDBDB"/>
<path fill-rule="evenodd" clip-rule="evenodd" d="M247.6 130.2H260.4C261.726 130.2 262.8 131.274 262.8 132.6V145.4C262.8 146.725 261.726 147.8 260.4 147.8H247.6C246.275 147.8 245.2 146.725 245.2 145.4V132.6C245.2 131.274 246.275 130.2 247.6 130.2ZM252.24 139.88L248.72 144.28H259.28L256.64 140.76L254.854 143.145L252.24 139.88ZM258.4 135.92C258.4 135.19 257.811 134.6 257.08 134.6C256.35 134.6 255.76 135.19 255.76 135.92C255.76 136.65 256.35 137.24 257.08 137.24C257.811 137.24 258.4 136.65 258.4 135.92Z" fill="#969696"/>
</svg>
