<svg width="290" height="220" viewBox="0 0 290 220" fill="none" xmlns="http://www.w3.org/2000/svg">
<rect width="290" height="220" rx="8" fill="#DBDBDB"/>
<path fill-rule="evenodd" clip-rule="evenodd" d="M138.6 101.2H151.4C152.726 101.2 153.8 102.274 153.8 103.6V116.4C153.8 117.725 152.726 118.8 151.4 118.8H138.6C137.275 118.8 136.2 117.725 136.2 116.4V103.6C136.2 102.274 137.275 101.2 138.6 101.2ZM143.24 110.88L139.72 115.28H150.28L147.64 111.76L145.854 114.145L143.24 110.88ZM149.4 106.92C149.4 106.19 148.811 105.6 148.08 105.6C147.35 105.6 146.76 106.19 146.76 106.92C146.76 107.65 147.35 108.24 148.08 108.24C148.811 108.24 149.4 107.65 149.4 106.92Z" fill="#969696"/>
</svg>
