<svg width="112" height="22" viewBox="0 0 112 22" fill="none" xmlns="http://www.w3.org/2000/svg">
<path fill-rule="evenodd" clip-rule="evenodd" d="M0 15.8156H4.12118C4.31945 17.5035 6.07555 18.6099 8.34149 18.6099C10.6216 18.6099 12.1794 17.5177 12.1794 16.0142C12.1794 14.6809 11.2022 13.9433 8.73803 13.3901L6.07555 12.8085C2.30843 12 0.453188 10.0851 0.453188 7.0922C0.453188 3.31915 3.71047 0.822695 8.27068 0.822695C13.0291 0.822695 16.0174 3.2766 16.0882 6.97872H12.0803C11.9387 5.24823 10.4233 4.19858 8.28484 4.19858C6.17468 4.19858 4.75847 5.20567 4.75847 6.7234C4.75847 7.98582 5.74982 8.69503 8.10073 9.23404L10.5791 9.75887C14.672 10.6383 16.4564 12.3972 16.4564 15.5177C16.4564 19.4894 13.2416 22 8.17154 22C3.25729 22 0.127459 19.6596 0 15.8156ZM25.088 8.85106C23.2045 8.85106 21.8166 10.2269 21.675 12.2269H28.402C28.3312 10.1844 26.9999 8.85106 25.088 8.85106ZM28.4586 16.8794H32.2682C31.815 19.9007 28.9968 21.9149 25.2013 21.9149C20.457 21.9149 17.5538 18.8652 17.5538 13.9007C17.5538 8.93617 20.4712 5.75887 25.0455 5.75887C29.5349 5.75887 32.3957 8.76596 32.3957 13.5177V14.7943H21.6325V15.0496C21.6325 17.305 23.0912 18.8227 25.2721 18.8227C26.83 18.8227 28.0621 18.0851 28.4586 16.8794ZM48.0659 11.7872H44.2138C43.9872 10.1702 42.8542 9.02128 41.0557 9.02128C38.9313 9.02128 37.5859 10.8369 37.5859 13.8298C37.5859 16.8794 38.9313 18.6383 41.0698 18.6383C42.8118 18.6383 43.9589 17.6879 44.228 15.9716H48.0801C47.8393 19.6028 45.1202 21.9149 41.0273 21.9149C36.368 21.9149 33.394 18.8511 33.394 13.8298C33.394 8.87943 36.368 5.75887 40.999 5.75887C45.191 5.75887 47.8676 8.31206 48.0659 11.7872ZM50.6079 2.55319H54.7432V6.02837H57.6323V9.16312H54.7432V16.7518C54.7432 17.9574 55.338 18.539 56.5984 18.539C56.9666 18.539 57.3773 18.5106 57.6323 18.4681V21.5319C57.2074 21.617 56.471 21.7021 55.6354 21.7021C52.0241 21.7021 50.6079 20.4823 50.6079 17.4326V9.16312H48.4977V6.02837H50.6079V2.55319ZM59.4236 21.6454V6.02837H63.559V21.6454H59.4236ZM61.4913 4.32624C60.2733 4.32624 59.2678 3.39007 59.2678 2.15603C59.2678 0.921986 60.2733 0 61.4913 0C62.7234 0 63.7289 0.921986 63.7289 2.15603C63.7289 3.39007 62.7234 4.32624 61.4913 4.32624ZM72.8987 21.9149C68.1686 21.9149 65.2087 18.8794 65.2087 13.8298C65.2087 8.83688 68.211 5.75887 72.8987 5.75887C77.6005 5.75887 80.5887 8.82269 80.5887 13.8298C80.5887 18.8936 77.6289 21.9149 72.8987 21.9149ZM72.8987 18.7234C75.0797 18.7234 76.3826 16.9362 76.3826 13.8298C76.3826 10.7518 75.0655 8.93617 72.8987 8.93617C70.7177 8.93617 69.4007 10.766 69.4007 13.8298C69.4007 16.9362 70.7177 18.7234 72.8987 18.7234ZM82.1535 21.6454V6.02837H86.1472V8.82269H86.2322C87.1244 6.85106 88.8522 5.80142 91.2456 5.80142C94.7011 5.80142 96.7971 7.98582 96.7971 11.6312V21.6454H92.6618V12.4965C92.6618 10.4255 91.5571 9.24823 89.6028 9.24823C87.6201 9.24823 86.2888 10.6667 86.2888 12.7376V21.6454H82.1535ZM98.6168 10.6241C98.6168 7.68794 101.194 5.75887 105.146 5.75887C108.998 5.75887 111.561 7.7305 111.618 10.7092H107.794C107.709 9.47518 106.675 8.69504 105.089 8.69504C103.602 8.69504 102.611 9.3617 102.611 10.3688C102.611 11.1489 103.29 11.6738 104.692 12L107.624 12.6383C110.754 13.3475 112 14.5532 112 16.8794C112 19.9149 109.21 21.9149 105.131 21.9149C101.024 21.9149 98.4469 19.9291 98.2344 16.922H102.271C102.469 18.2411 103.531 18.9787 105.245 18.9787C106.887 18.9787 107.893 18.3404 107.893 17.3191C107.893 16.5106 107.355 16.0851 105.939 15.7447L103.064 15.0922C100.132 14.4255 98.6168 12.9078 98.6168 10.6241Z" fill="#1C1C1C"/>
</svg>
