<svg width="126" height="24" viewBox="0 0 126 24" fill="none" xmlns="http://www.w3.org/2000/svg">
<path fill-rule="evenodd" clip-rule="evenodd" d="M6 2C3.79086 2 2 3.79086 2 6V18C2 20.2091 3.79086 22 6 22H11.8808V15.1578H9.516V12.4913H11.8808V10.5249C11.8808 8.2427 13.3119 7 15.403 7C16.4047 7 17.265 7.07288 17.516 7.10528V9.49055L16.066 9.49129C14.929 9.49129 14.709 10.0177 14.709 10.7892V12.492H17.4207L17.0677 15.1585H14.709V22H18C20.2091 22 22 20.2091 22 18V6C22 3.79086 20.2091 2 18 2H6Z" fill="#969696"/>
<path fill-rule="evenodd" clip-rule="evenodd" d="M46 2C43.2842 2 42.9442 2.01167 41.8775 2.06C38.2458 2.22667 36.2275 4.24167 36.0608 7.87667C36.0117 8.94417 36 9.28417 36 12C36 14.7158 36.0117 15.0567 36.06 16.1233C36.2267 19.755 38.2417 21.7733 41.8767 21.94C42.9442 21.9883 43.2842 22 46 22C48.7158 22 49.0567 21.9883 50.1233 21.94C53.7517 21.7733 55.775 19.7583 55.9392 16.1233C55.9883 15.0567 56 14.7158 56 12C56 9.28417 55.9883 8.94417 55.94 7.8775C55.7767 4.24917 53.7592 2.2275 50.1242 2.06083C49.0567 2.01167 48.7158 2 46 2ZM46 6.865C43.1642 6.865 40.865 9.16417 40.865 12C40.865 14.8358 43.1642 17.1358 46 17.1358C48.8358 17.1358 51.135 14.8367 51.135 12C51.135 9.16417 48.8358 6.865 46 6.865ZM46 15.3333C44.1592 15.3333 42.6667 13.8417 42.6667 12C42.6667 10.1592 44.1592 8.66667 46 8.66667C47.8408 8.66667 49.3333 10.1592 49.3333 12C49.3333 13.8417 47.8408 15.3333 46 15.3333ZM51.3383 5.4625C50.675 5.4625 50.1375 6 50.1375 6.6625C50.1375 7.325 50.675 7.8625 51.3383 7.8625C52.0008 7.8625 52.5375 7.325 52.5375 6.6625C52.5375 6 52.0008 5.4625 51.3383 5.4625Z" fill="#969696"/>
<path fill-rule="evenodd" clip-rule="evenodd" d="M90 5.92417C89.2642 6.25083 88.4733 6.47083 87.6433 6.57C88.4908 6.0625 89.1417 5.25833 89.4475 4.3C88.655 4.77 87.7767 5.11167 86.8417 5.29583C86.0942 4.49833 85.0267 4 83.8467 4C81.1975 4 79.2508 6.47167 79.8492 9.0375C76.44 8.86667 73.4167 7.23333 71.3925 4.75083C70.3175 6.595 70.835 9.0075 72.6617 10.2292C71.99 10.2075 71.3567 10.0233 70.8042 9.71583C70.7592 11.6167 72.1217 13.395 74.095 13.7908C73.5175 13.9475 72.885 13.9842 72.2417 13.8608C72.7633 15.4908 74.2783 16.6767 76.075 16.71C74.35 18.0625 72.1767 18.6667 70 18.41C71.8158 19.5742 73.9733 20.2533 76.29 20.2533C83.9083 20.2533 88.2125 13.8192 87.9525 8.04833C88.7542 7.46917 89.45 6.74667 90 5.92417Z" fill="#969696"/>
<path fill-rule="evenodd" clip-rule="evenodd" d="M120.346 5.15344C117.342 4.94844 110.653 4.94927 107.654 5.15344C104.407 5.3751 104.024 7.33677 104 12.5001C104.024 17.6543 104.403 19.6243 107.654 19.8468C110.654 20.0509 117.342 20.0518 120.346 19.8468C123.593 19.6251 123.976 17.6634 124 12.5001C123.976 7.34594 123.597 5.37594 120.346 5.15344ZM111.5 15.8334V9.16677L118.167 12.4943L111.5 15.8334Z" fill="#969696"/>
</svg>
